<?xml version="1.0" encoding="UTF-8"?>
<svg xmlns="http://www.w3.org/2000/svg" xmlns:xlink="http://www.w3.org/1999/xlink" width="203px" height="64px" viewBox="0 0 203 64" version="1.1">
  <title>chromecast_googleplay_img</title>
  <defs>
    <linearGradient x1="32.5822076%" y1="-6.0957265%" x2="54.3348256%" y2="92.1559829%" id="linearGradient-1">
      <stop stop-color="#006884" offset="0%"></stop>
      <stop stop-color="#8AD1D0" offset="100%"></stop>
    </linearGradient>
    <linearGradient x1="-7.52792208%" y1="30.8875466%" x2="91.537013%" y2="70.2340493%" id="linearGradient-2">
      <stop stop-color="#24BBB6" offset="0%"></stop>
      <stop stop-color="#DBE692" offset="100%"></stop>
    </linearGradient>
    <linearGradient x1="49.9404255%" y1="105.754795%" x2="49.9404255%" y2="-3.12739726%" id="linearGradient-3">
      <stop stop-color="#FCC072" offset="0%"></stop>
      <stop stop-color="#F58A5B" offset="100%"></stop>
    </linearGradient>
    <linearGradient x1="11.1493421%" y1="87.8648943%" x2="90.4368421%" y2="28.8466455%" id="linearGradient-4">
      <stop stop-color="#712B8F" offset="0%"></stop>
      <stop stop-color="#EA1D27" offset="100%"></stop>
    </linearGradient>
  </defs>
  <g id="1.1.0" stroke="none" stroke-width="1" fill="none" fill-rule="evenodd">
    <g id="切图" transform="translate(-287.000000, -50.000000)">
      <g id="编组-8" transform="translate(287.000000, 50.000000)">
        <path d="M196.65625,64 L6.34375,64 C2.8546875,64 0,61.12 0,57.6 L0,6.4 C0,2.88 2.8546875,0 6.34375,0 L196.65625,0 C200.145312,0 203,2.88 203,6.4 L203,57.6 C203,61.12 200.145312,64 196.65625,64 Z" id="路径" fill="#000000" fill-rule="nonzero"></path>
        <path d="M16.3168317,31.8393705 L16.3168317,14.9732736 C16.3168317,14.0094967 17.1084588,13.2063492 17.9000859,13.2063492 C18.691713,13.2063492 19.0083639,13.3669787 19.4833401,13.6882377 L50.0401465,30.714964 C50.6734482,31.036223 50.990099,31.5181115 50.990099,32 C50.990099,32.4818885 50.6734482,32.963777 50.0401465,33.285036 L19.4833401,50.3117623 C19.1666893,50.4723918 18.691713,50.7936508 17.9000859,50.7936508 C17.1084588,50.7936508 16.3168317,49.9905033 16.3168317,49.0267264 L16.3168317,31.8393705 Z" id="路径" fill="url(#linearGradient-1)"></path>
        <path d="M35.9314646,31.4920635 L17.3366337,13.2063492 C17.4955638,13.2063492 17.4955638,13.2063492 17.654494,13.2063492 C18.4491449,13.2063492 18.7670053,13.3626374 19.2437958,13.6752137 L41.8118812,25.8656899 L35.9314646,31.4920635 Z" id="路径" fill="url(#linearGradient-2)"></path>
        <path d="M41.5515062,36.5714286 L35.6930693,31.0606654 L41.7142406,25.3968254 L50.0136929,29.6829746 C50.6646303,29.9891281 50.990099,30.4483583 50.990099,30.9075886 C50.990099,31.3668189 50.6646303,31.8260491 50.0136929,32.1322027 L41.5515062,36.5714286 Z" id="路径" fill="url(#linearGradient-3)"></path>
        <path d="M17.3366337,49.7777778 L17.3366337,49.7777778 L36.015112,31.4920635 L41.8118812,37.1669403 L19.1078687,49.3048714 C18.6248046,49.6201423 18.3027619,49.7777778 17.3366337,49.7777778 C17.497655,49.7777778 17.497655,49.7777778 17.3366337,49.7777778 Z" id="路径" fill="url(#linearGradient-4)"></path>
        <path d="M114.487289,54.2500235 C113.686091,53.6008265 113.045133,52.4647318 112.724654,51.8155349 L115.288487,50.6794402 C115.448727,51.0040387 115.769206,51.4909364 116.089685,51.9778341 C116.730643,52.6270311 117.692081,53.276228 118.653518,53.276228 C119.614956,53.276228 120.736633,52.7893303 121.377592,51.9778341 C121.85831,51.1663379 122.178789,50.3548417 122.178789,49.2187471 L122.178789,48.2449516 C120.255914,50.6794402 116.249925,50.3548417 114.00657,47.7580539 C111.602976,45.1612661 111.602976,40.7791866 114.00657,38.1823988 C116.410164,35.7479102 119.935435,35.4233117 122.01855,37.6955011 C122.01855,37.6955011 122.01855,37.6955011 122.01855,37.6955011 L122.01855,36.5594064 L124.742623,36.5594064 L124.742623,48.7318493 C124.742623,51.8155349 123.620946,53.6008265 122.178789,54.7369212 C121.217352,55.5484174 119.775196,55.8730159 118.493279,55.8730159 C117.051123,55.7107166 115.608966,55.2238189 114.487289,54.2500235 L114.487289,54.2500235 Z M181.627678,54.8992204 L181.627678,54.8992204 L184.351751,48.4072509 L179.544563,37.2086034 L182.268636,37.2086034 L185.633668,45.1612661 L188.998699,37.2086034 L191.722772,37.2086034 L184.351751,54.8992204 L181.627678,54.8992204 L181.627678,54.8992204 Z M168.648271,48.7318493 L168.648271,48.7318493 C167.847073,47.9203532 167.526594,46.7842585 167.526594,45.6481638 C167.526594,44.6743684 167.847073,43.7005729 168.488031,43.051376 C169.609709,41.9152813 171.212105,41.4283836 172.97474,41.4283836 C174.096417,41.4283836 175.057855,41.5906828 175.859053,42.0775805 C175.859053,40.1299897 174.256657,39.3184935 172.97474,39.3184935 C171.853063,39.3184935 170.731386,39.9676904 170.250667,41.1037851 L167.847073,40.1299897 C168.327792,38.993895 169.609709,36.8840049 172.8145,36.8840049 C174.416896,36.8840049 176.019292,37.3709026 176.98073,38.5069973 C177.942167,39.643092 178.262647,40.9414859 178.262647,42.7267775 L178.262647,49.5433455 L175.538574,49.5433455 L175.538574,48.4072509 C175.218094,48.8941486 174.577136,49.2187471 174.096417,49.5433455 C173.455459,49.867944 172.654261,50.0302433 171.853063,50.0302433 C170.891625,49.867944 169.449469,49.5433455 168.648271,48.7318493 L168.648271,48.7318493 Z M83.2405687,42.8890767 L83.2405687,42.8890767 C83.2405687,39.643092 85.6441626,36.0725087 89.9706315,36.0725087 C94.1368609,36.0725087 96.7006944,39.643092 96.7006944,42.8890767 C96.7006944,46.1350615 94.2971005,49.7056448 89.9706315,49.7056448 C85.6441626,49.7056448 83.2405687,46.1350615 83.2405687,42.8890767 L83.2405687,42.8890767 Z M97.6621319,42.8890767 L97.6621319,42.8890767 C97.6621319,39.643092 100.065726,36.0725087 104.392195,36.0725087 C108.558424,36.0725087 111.122258,39.643092 111.122258,42.8890767 C111.122258,46.1350615 108.718664,49.7056448 104.392195,49.7056448 C100.225965,49.7056448 97.6621319,46.1350615 97.6621319,42.8890767 L97.6621319,42.8890767 Z M65.1334948,46.45966 L65.1334948,46.45966 C61.127505,42.402179 61.2877446,35.7479102 65.2937344,31.52813 C67.3768491,29.4182399 69.9406826,28.4444444 72.6647556,28.4444444 C75.2285891,28.4444444 77.7924226,29.4182399 79.7152977,31.3658308 L77.7924226,33.4757209 C74.9081099,30.5543346 70.2611618,30.7166338 67.5370887,33.6380201 C64.652776,36.7217056 64.652776,41.4283836 67.5370887,44.5120691 C70.4214013,47.5957547 75.2285891,47.7580539 78.1129017,44.6743684 C79.0743393,43.7005729 79.3948185,42.402179 79.5550581,41.1037851 L72.8249952,41.1037851 L72.8249952,38.1823988 L82.2791311,38.1823988 C82.4393707,38.8315958 82.4393707,39.643092 82.4393707,40.4545881 C82.4393707,42.8890767 81.4779332,45.3235653 79.8755373,46.9465577 C78.1129017,48.7318493 75.5490683,49.7056448 72.9852348,49.7056448 C70.1009222,49.5433455 67.2166095,48.5695501 65.1334948,46.45966 L65.1334948,46.45966 Z M132.914842,47.5957547 L132.914842,47.5957547 C130.511248,44.9989668 130.511248,40.6168874 132.914842,37.8578003 C135.318436,35.2610125 139.324426,35.2610125 141.56778,37.8578003 C142.368978,38.6692965 142.849697,39.8053912 143.330416,40.9414859 L134.517238,44.6743684 C134.997957,45.810463 136.119634,46.7842585 137.72203,46.7842585 C139.164186,46.7842585 140.125624,46.2973608 141.087061,44.8366676 L143.490655,46.45966 L143.490655,46.45966 C143.170176,46.7842585 142.849697,47.108857 142.689457,47.4334554 C139.965384,50.1925425 135.318436,50.1925425 132.914842,47.5957547 L132.914842,47.5957547 Z M149.57976,49.5433455 L149.57976,49.5433455 L149.57976,31.52813 L155.348385,31.52813 C158.713416,31.52813 161.437489,33.9626186 161.437489,36.8840049 C161.437489,39.8053912 159.033896,42.2398798 155.989343,42.2398798 L152.464072,42.2398798 L152.464072,49.3810463 L149.57976,49.3810463 L149.57976,49.5433455 Z M163.039885,49.5433455 L163.039885,49.5433455 L163.039885,31.52813 L165.763958,31.52813 L165.763958,49.5433455 L163.039885,49.5433455 L163.039885,49.5433455 Z M126.825738,49.2187471 L126.825738,49.2187471 L126.825738,29.0936414 L129.71005,29.0936414 L129.71005,49.2187471 L126.825738,49.2187471 L126.825738,49.2187471 Z M175.698813,44.1874706 L175.698813,44.1874706 C175.057855,43.7005729 174.096417,43.5382737 173.13498,43.5382737 C171.212105,43.5382737 170.090427,44.5120691 170.090427,45.6481638 C170.090427,46.7842585 171.212105,47.4334554 172.333782,47.4334554 C173.936178,47.4334554 175.698813,46.1350615 175.698813,44.1874706 L175.698813,44.1874706 Z M93.6561421,42.8890767 L93.6561421,42.8890767 C93.6561421,40.9414859 92.3742254,38.8315958 89.9706315,38.8315958 C87.5670377,38.8315958 86.2851209,40.9414859 86.2851209,42.8890767 C86.2851209,44.8366676 87.5670377,46.9465577 89.9706315,46.9465577 C92.2139858,46.9465577 93.6561421,44.8366676 93.6561421,42.8890767 L93.6561421,42.8890767 Z M108.077705,42.8890767 L108.077705,42.8890767 C108.077705,40.9414859 106.795789,38.8315958 104.392195,38.8315958 C101.988601,38.8315958 100.706684,40.9414859 100.706684,42.8890767 C100.706684,44.8366676 101.988601,46.9465577 104.392195,46.9465577 C106.795789,46.9465577 108.077705,44.8366676 108.077705,42.8890767 L108.077705,42.8890767 Z M122.339029,44.0251714 L122.339029,44.0251714 C122.339029,43.8628722 122.339029,43.7005729 122.499269,43.5382737 C122.499269,43.5382737 122.499269,43.5382737 122.499269,43.5382737 C122.499269,43.3759745 122.499269,43.051376 122.499269,42.8890767 C122.499269,42.7267775 122.499269,42.402179 122.499269,42.2398798 C122.499269,42.2398798 122.499269,42.0775805 122.499269,42.0775805 C122.499269,41.9152813 122.339029,41.5906828 122.339029,41.4283836 C121.85831,39.8053912 120.416154,38.6692965 118.973998,38.6692965 C117.051123,38.6692965 115.448727,40.6168874 115.448727,42.7267775 C115.448727,44.9989668 117.051123,46.7842585 119.134237,46.7842585 C120.416154,46.9465577 121.698071,45.810463 122.339029,44.0251714 L122.339029,44.0251714 Z M134.036519,42.5644783 L134.036519,42.5644783 L139.965384,39.9676904 C139.324426,38.8315958 138.362988,38.5069973 137.56179,38.5069973 C135.158196,38.6692965 133.71604,41.2660843 134.036519,42.5644783 L134.036519,42.5644783 Z M158.553177,37.0463041 L158.553177,37.0463041 C158.553177,35.4233117 157.27126,34.2872171 155.508625,34.2872171 L152.303833,34.2872171 L152.303833,39.9676904 L155.668864,39.9676904 C157.27126,39.9676904 158.553177,38.6692965 158.553177,37.0463041 Z" id="形状" fill="#FFFFFF"></path>
        <polygon id="路径" fill="#FFFFFF" points="183.666337 51.9111111 183.666337 51.9111111 183.462376 51.9111111 183.462376 51.9111111 183.462376 51.7079365 183.462376 51.7079365 183.666337 51.7079365 183.666337 51.7079365 183.462376 51.7079365 183.462376 51.7079365 183.462376 51.9111111 183.462376 51.9111111"></polygon>
        <polygon id="路径" fill="#FFFFFF" points="183.564356 51.9111111 183.564356 51.9111111 183.564356 51.7079365 183.564356 51.7079365 183.564356 51.7079365 183.564356 51.7079365 183.564356 51.7079365 183.564356 51.7079365 183.564356 51.7079365 183.564356 51.7079365 183.564356 51.9111111"></polygon>
        <polygon id="路径" fill="#FFFFFF" points="183.564356 51.7079365 183.564356 51.7079365 183.564356 51.7079365 183.564356 51.7079365 183.564356 51.9111111 183.564356 51.9111111 183.564356 51.7079365"></polygon>
        <polygon id="路径" fill="#FFFFFF" points="183.564356 51.9111111 183.564356 51.9111111 183.564356 51.7079365 183.564356 51.7079365 183.564356 51.7079365 183.564356 51.7079365 183.564356 51.7079365 183.564356 51.7079365 183.564356 51.7079365 183.564356 51.7079365 183.564356 51.9111111"></polygon>
        <polygon id="路径" fill="#FFFFFF" points="183.564356 51.7079365 183.564356 51.7079365 183.564356 51.7079365 183.564356 51.7079365 183.564356 51.7079365 183.564356 51.7079365 183.564356 51.7079365 183.564356 51.7079365 183.564356 51.9111111 183.564356 51.9111111"></polygon>
        <polygon id="路径" fill="#FFFFFF" points="183.564356 51.9111111 183.564356 51.9111111 183.564356 51.7079365 183.564356 51.7079365 183.564356 51.9111111"></polygon>
        <path d="M183.564356,51.8857143 L183.564356,51.8857143 L183.564356,51.8857143 L183.564356,51.8857143 L183.564356,51.8857143 L183.564356,51.8857143 C183.564356,51.8857143 183.564356,51.8857143 183.564356,51.8857143 C183.564356,51.8857143 183.564356,51.8857143 183.564356,51.8857143 L183.564356,51.8857143 C183.564356,51.6825397 183.564356,51.6825397 183.564356,51.8857143 C183.564356,51.6825397 183.564356,51.6825397 183.564356,51.8857143 L183.564356,51.8857143 C183.564356,51.6825397 183.564356,51.6825397 183.564356,51.8857143 C183.564356,51.6825397 183.564356,51.6825397 183.564356,51.8857143 L183.564356,51.8857143 C183.564356,51.8857143 183.564356,51.8857143 183.564356,51.8857143 C183.564356,51.8857143 183.564356,51.8857143 183.564356,51.8857143 L183.564356,51.8857143 Z" id="路径" fill="#FFFFFF"></path>
        <polygon id="路径" fill="#FFFFFF" points="183.564356 51.9111111 183.564356 51.7079365 183.564356 51.7079365 183.564356 51.7079365 183.564356 51.7079365 183.564356 51.7079365 183.564356 51.9111111 183.564356 51.9111111 183.564356 51.7079365 183.564356 51.7079365 183.564356 51.9111111 183.564356 51.9111111 183.564356 51.7079365 183.564356 51.7079365"></polygon>
        <path d="M183.564356,51.8857143 C183.564356,51.6825397 183.564356,51.6825397 183.564356,51.8857143 C183.564356,51.6825397 183.564356,51.6825397 183.564356,51.8857143 C183.564356,51.6825397 183.564356,51.6825397 183.564356,51.8857143 C183.564356,51.6825397 183.564356,51.6825397 183.564356,51.8857143 L183.564356,51.8857143 C183.564356,51.6825397 183.564356,51.6825397 183.564356,51.8857143 C183.564356,51.6825397 183.564356,51.6825397 183.564356,51.8857143 C183.564356,51.6825397 183.564356,51.6825397 183.564356,51.8857143 C183.564356,51.6825397 183.564356,51.6825397 183.564356,51.8857143 C183.564356,51.8857143 183.564356,51.8857143 183.564356,51.8857143 C183.564356,51.8857143 183.564356,51.8857143 183.564356,51.8857143 L183.564356,51.8857143 C183.564356,51.8857143 183.564356,51.8857143 183.564356,51.8857143 C183.564356,51.8857143 183.564356,51.8857143 183.564356,51.8857143 Z" id="路径" fill="#FFFFFF"></path>
        <polygon id="路径" fill="#FFFFFF" points="183.666337 51.7079365 183.462376 51.7079365 183.462376 51.7079365 183.666337 51.7079365 183.666337 51.9111111 183.666337 51.9111111 183.666337 51.7079365"></polygon>
        <polygon id="路径" fill="#FFFFFF" points="183.564356 51.9111111 183.564356 51.9111111 183.564356 51.7079365 183.564356 51.7079365 183.564356 51.7079365 183.564356 51.7079365 183.564356 51.7079365 183.564356 51.7079365 183.564356 51.7079365 183.564356 51.7079365 183.564356 51.9111111"></polygon>
        <path d="M62.2079208,15.7460317 C62.2079208,12.9085933 64.2090417,11.1746032 66.6719596,11.1746032 C68.3652158,11.1746032 69.4427424,11.9627805 70.2124043,13.0662288 L68.9809453,13.8544061 C68.5191481,13.2238643 67.7494863,12.7509579 66.6719596,12.7509579 C64.9787035,12.7509579 63.7472445,14.0120416 63.7472445,15.9036672 C63.7472445,17.7952928 64.9787035,19.0563766 66.6719596,19.0563766 C67.5955539,19.0563766 68.3652158,18.5834702 68.6730805,18.2681992 L68.6730805,16.84948 L66.2101625,16.84948 L66.2101625,15.4307608 L70.3663366,15.4307608 L70.3663366,18.7411056 C69.5966748,19.6869184 68.3652158,20.3174603 66.825892,20.3174603 C64.2090417,20.3174603 62.2079208,18.4258347 62.2079208,15.7460317 Z" id="路径" fill="#FFFFFF" fill-rule="nonzero"></path>
        <polygon id="路径" fill="#FFFFFF" fill-rule="nonzero" points="72.4059406 20.1570593 72.4059406 11.1746032 78.5247525 11.1746032 78.5247525 12.6182122 73.8551329 12.6182122 73.8551329 14.8638262 78.3637311 14.8638262 78.3637311 16.3074353 73.8551329 16.3074353 73.8551329 18.8738513 78.5247525 18.8738513 78.5247525 20.3174603"></polygon>
        <polygon id="路径" fill="#FFFFFF" fill-rule="nonzero" points="83.3224572 20.3174603 83.3224572 12.6439909 80.5643564 12.6439909 80.5643564 11.1746032 87.7029703 11.1746032 87.7029703 12.6439909 84.9448695 12.6439909 84.9448695 20.3174603"></polygon>
        <path d="M92.8019802,20.3174603 L92.8019802,11.1746032 L94.8415842,11.1746032 L94.8415842,20.3174603 C94.8415842,20.3174603 92.8019802,20.3174603 92.8019802,20.3174603 Z" id="路径" fill="#FFFFFF" fill-rule="nonzero"></path>
        <polygon id="路径" fill="#FFFFFF" fill-rule="nonzero" points="99.6392889 20.3174603 99.6392889 12.6439909 96.8811881 12.6439909 96.8811881 11.1746032 104.019802 11.1746032 104.019802 12.6439909 101.261701 12.6439909 101.261701 20.3174603"></polygon>
        <path d="M109.118812,15.7460317 C109.118812,13.0662288 111.017753,11.1746032 113.707921,11.1746032 C116.398088,11.1746032 118.29703,13.0662288 118.29703,15.7460317 C118.29703,18.4258347 116.398088,20.3174603 113.707921,20.3174603 C111.017753,20.3174603 109.118812,18.2681992 109.118812,15.7460317 Z M116.556333,15.7460317 C116.556333,13.8544061 115.448617,12.5933224 113.549676,12.5933224 C111.808979,12.5933224 110.543018,14.0120416 110.543018,15.7460317 C110.543018,17.6376574 111.650734,18.8987411 113.549676,18.8987411 C115.448617,18.8987411 116.556333,17.4800219 116.556333,15.7460317 Z" id="形状" fill="#FFFFFF" fill-rule="nonzero"></path>
        <polygon id="路径" fill="#FFFFFF" fill-rule="nonzero" points="125.810265 20.3174603 120.981815 13.7868481 120.981815 20.3174603 119.316832 20.3174603 119.316832 11.1746032 120.981815 11.1746032 125.810265 17.5419501 125.810265 11.1746032 127.475248 11.1746032 127.475248 20.3174603"></polygon>
      </g>
    </g>
  </g>
</svg>
