<?xml version="1.0" encoding="UTF-8"?>
<svg version="1.1" xmlns="http://www.w3.org/2000/svg" width="31" height="50">
<path d="M0 0 C2.8125 0.5 2.8125 0.5 4.8125 2.5 C4.55924563 7.09942623 2.18147756 10.54559953 -0.25 14.3125 C-0.62705078 14.90998047 -1.00410156 15.50746094 -1.39257812 16.12304688 C-2.31739566 17.58636577 -3.25152065 19.04379523 -4.1875 20.5 C-2.2075 20.83 -0.2275 21.16 1.8125 21.5 C2.1425 23.15 2.4725 24.8 2.8125 26.5 C5.1225 27.16 7.4325 27.82 9.8125 28.5 C10.4921875 30.765625 10.4921875 30.765625 10.8125 33.5 C9.6953125 35.421875 9.6953125 35.421875 7.9375 37.25 C7.29167969 37.92546875 6.64585938 38.6009375 5.98046875 39.296875 C5.26503906 40.02390625 4.54960937 40.7509375 3.8125 41.5 C3.06613281 42.33015625 2.31976562 43.1603125 1.55078125 44.015625 C0.79152344 44.83546875 0.03226563 45.6553125 -0.75 46.5 C-1.45253906 47.263125 -2.15507812 48.02625 -2.87890625 48.8125 C-5.80808441 50.95362515 -7.64086829 50.82565915 -11.1875 50.5 C-12.3671875 48.39453125 -12.3671875 48.39453125 -13.1875 45.5 C-12.0703125 42.38671875 -12.0703125 42.38671875 -10.3125 39.1875 C-9.73757813 38.11886719 -9.16265625 37.05023438 -8.5703125 35.94921875 C-8.11398437 35.14097656 -7.65765625 34.33273438 -7.1875 33.5 C-8.64349609 33.066875 -8.64349609 33.066875 -10.12890625 32.625 C-13.1875 31.5 -13.1875 31.5 -14.125 29.5 C-14.1875 27.5 -14.1875 27.5 -13.1875 25.5 C-14.156875 25.520625 -15.12625 25.54125 -16.125 25.5625 C-19.1875 25.5 -19.1875 25.5 -20.1875 24.5 C-20.60546875 21.8125 -20.60546875 21.8125 -20.1875 18.5 C-18.33842792 16.23510788 -16.64597772 14.43213469 -14.5 12.5 C-13.43116626 11.502595 -12.36474101 10.50260257 -11.30078125 9.5 C-10.77669678 9.01208984 -10.2526123 8.52417969 -9.71264648 8.02148438 C-8.16904675 6.48159106 -6.83863856 4.86940813 -5.4921875 3.15625 C-3.1875 0.5 -3.1875 0.5 0 0 Z M-5.1875 9.5 C-8.1575 12.8 -11.1275 16.1 -14.1875 19.5 C-12.8675 19.83 -11.5475 20.16 -10.1875 20.5 C-8.2075 17.53 -6.2275 14.56 -4.1875 11.5 C-4.5175 10.84 -4.8475 10.18 -5.1875 9.5 Z M-7.1875 25.5 C-7.5175 26.16 -7.8475 26.82 -8.1875 27.5 C-6.5375 27.5 -4.8875 27.5 -3.1875 27.5 C-3.1875 26.84 -3.1875 26.18 -3.1875 25.5 C-4.5075 25.5 -5.8275 25.5 -7.1875 25.5 Z M-1.66796875 34.2109375 C-3.00065655 36.27903005 -4.23091723 38.2315323 -5.1875 40.5 C-4.8575 41.16 -4.5275 41.82 -4.1875 42.5 C-2.68452124 41.02386015 -1.18518715 39.54400843 0.3125 38.0625 C1.1478125 37.23878906 1.983125 36.41507813 2.84375 35.56640625 C4.92746531 33.85501902 4.92746531 33.85501902 4.8125 32.5 C1.82260632 31.81659573 0.38486925 31.83852841 -1.66796875 34.2109375 Z " fill="#F9D205" transform="translate(20.1875,-0.49999999999999994)"/>
<path d="M0 0 C5.625 -0.25 5.625 -0.25 9 2 C12.08222476 2.09845996 15.10837365 1.93205476 18.1875 1.77734375 C21 2 21 2 22.9375 3.19140625 C24 5 24 5 23.7644043 7.37744141 C22.44702148 11.89718787 19.08965509 14.56640799 15.8125 17.8125 C15.15185547 18.50537109 14.49121094 19.19824219 13.81054688 19.91210938 C8.84073805 24.89173026 8.84073805 24.89173026 4.51171875 25.44921875 C3.68285156 25.30097656 2.85398437 25.15273438 2 25 C0.8203125 22.89453125 0.8203125 22.89453125 0 20 C1.1171875 16.88671875 1.1171875 16.88671875 2.875 13.6875 C3.44992188 12.61886719 4.02484375 11.55023438 4.6171875 10.44921875 C5.07351562 9.64097656 5.52984375 8.83273438 6 8 C5.02933594 7.71125 4.05867187 7.4225 3.05859375 7.125 C0 6 0 6 -0.9375 4 C-1 2 -1 2 0 0 Z M11.51953125 8.7109375 C10.18684345 10.77903005 8.95658277 12.7315323 8 15 C8.33 15.66 8.66 16.32 9 17 C10.50297876 15.52386015 12.00231285 14.04400843 13.5 12.5625 C14.3353125 11.73878906 15.170625 10.91507813 16.03125 10.06640625 C18.11496531 8.35501902 18.11496531 8.35501902 18 7 C15.01010632 6.31659573 13.57236925 6.33852841 11.51953125 8.7109375 Z " fill="#FF618E" transform="translate(7,25)"/>
<path d="M0 0 C1.98 0 3.96 0 6 0 C4.68 2.97 3.36 5.94 2 9 C3.32 7.68 4.64 6.36 6 5 C7.32 5.66 8.64 6.32 10 7 C7.94141895 11.56116978 5.0000912 14.99372028 1 18 C-2.4375 18.4375 -2.4375 18.4375 -5 18 C-6.2109375 15.92578125 -6.2109375 15.92578125 -7 13 C-5.99039331 10.48188741 -5.01127466 8.47332422 -3.625 6.1875 C-3.11066406 5.2912793 -3.11066406 5.2912793 -2.5859375 4.37695312 C-1.74012879 2.90853523 -0.87217342 1.45291328 0 0 Z " fill="#FF9F2F" transform="translate(14,32)"/>
<path d="M0 0 C2.875 -0.125 2.875 -0.125 6 0 C6.66 0.66 7.32 1.32 8 2 C7.75930309 6.77095654 5.24361427 10.39453971 2.75 14.3125 C2.36714844 14.95767578 1.98429687 15.60285156 1.58984375 16.26757812 C0.421875 18.11328125 0.421875 18.11328125 -2 21 C-4.796875 21.41796875 -4.796875 21.41796875 -7 21 C-5.65957679 17.33181747 -3.97119393 14.3082322 -1.8125 11.0625 C0.65915252 7.06371653 0.65915252 7.06371653 0.875 2.375 C0.58625 1.59125 0.2975 0.8075 0 0 Z " fill="#09C2D1" transform="translate(17,0)"/>
<path d="M0 0 C5.625 -0.25 5.625 -0.25 9 2 C10.65549531 2.38499891 12.3222433 2.72793135 14 3 C14 4.32 14 5.64 14 7 C11.87527424 7.05386629 9.75016348 7.09273071 7.625 7.125 C5.84996094 7.15980469 5.84996094 7.15980469 4.0390625 7.1953125 C1 7 1 7 -1 5 C-0.625 2.375 -0.625 2.375 0 0 Z " fill="#2291FE" transform="translate(7,25)"/>
<path d="M0 0 C3.125 0.375 3.125 0.375 6 1 C6.625 3.375 6.625 3.375 7 6 C5 8 5 8 2.375 8.125 C1.59125 8.08375 0.8075 8.0425 0 8 C0.33 7.01 0.66 6.02 1 5 C-1.97 5 -4.94 5 -8 5 C-8 4.67 -8 4.34 -8 4 C-6.576875 3.566875 -6.576875 3.566875 -5.125 3.125 C-1.94788422 2.23174891 -1.94788422 2.23174891 0 0 Z " fill="#F1B61C" transform="translate(16,20)"/>
<path d="M0 0 C0.99 0.66 1.98 1.32 3 2 C2.45773019 5.79588866 0.79872437 7.47211993 -2 10 C-3.32 9.34 -4.64 8.68 -6 8 C-4.02 5.36 -2.04 2.72 0 0 Z " fill="#8ED453" transform="translate(16,1)"/>
<path d="M0 0 C0.66 0 1.32 0 2 0 C2.25 6.625 2.25 6.625 0 10 C-2.625 10.1875 -2.625 10.1875 -5 10 C-3.66749209 6.4124787 -2.169283 3.1635377 0 0 Z " fill="#22A1E9" transform="translate(15,11)"/>
<path d="M0 0 C3.375 -0.125 3.375 -0.125 7 0 C7.66 0.66 8.32 1.32 9 2 C7.875 3.5 7.875 3.5 6 5 C2.8125 5.1875 2.8125 5.1875 0 5 C0 3.35 0 1.7 0 0 Z " fill="#D24DD3" transform="translate(21,27)"/>
<path d="M0 0 C2.875 -0.125 2.875 -0.125 6 0 C6.66 0.66 7.32 1.32 8 2 C7.625 4.125 7.625 4.125 7 6 C4.625 5.8125 4.625 5.8125 2 5 C0.6875 2.4375 0.6875 2.4375 0 0 Z " fill="#1DD6A7" transform="translate(17,0)"/>
<path d="M0 0 C1.32 0.66 2.64 1.32 4 2 C3.34 3.32 2.68 4.64 2 6 C0.35 5.67 -1.3 5.34 -3 5 C-1.125 1.125 -1.125 1.125 0 0 Z " fill="#FF7965" transform="translate(20,37)"/>
<path d="M0 0 C0.66 0.33 1.32 0.66 2 1 C1.625 3.4375 1.625 3.4375 1 6 C0.01 6.495 0.01 6.495 -1 7 C-1.99 6.01 -2.98 5.02 -4 4 C-2.68 3.34 -1.36 2.68 0 2 C0 1.34 0 0.68 0 0 Z " fill="#FE4AB3" transform="translate(29,29)"/>
<path d="M0 0 C1.65 0 3.3 0 5 0 C5 1.32 5 2.64 5 4 C3.02 4 1.04 4 -1 4 C-0.67 2.68 -0.34 1.36 0 0 Z " fill="#6878EA" transform="translate(16,28)"/>
<path d="M0 0 C1.32 0.66 2.64 1.32 4 2 C3.01 3.32 2.02 4.64 1 6 C0.01 5.34 -0.98 4.68 -2 4 C-1.34 2.68 -0.68 1.36 0 0 Z " fill="#C3D32B" transform="translate(9,9)"/>
<path d="M0 0 C0.99 0.66 1.98 1.32 3 2 C2.67 3.32 2.34 4.64 2 6 C-0.475 5.01 -0.475 5.01 -3 4 C-2.01 2.68 -1.02 1.36 0 0 Z " fill="#56D47C" transform="translate(16,1)"/>
<path d="M0 0 C1.32 0 2.64 0 4 0 C3.67 1.65 3.34 3.3 3 5 C2.01 5 1.02 5 0 5 C0 3.35 0 1.7 0 0 Z " fill="#9E62DD" transform="translate(21,27)"/>
</svg>
